<?xml version="1.0" encoding="UTF-8"?>
<svg width="247px" height="104px" viewBox="0 0 247 104" version="1.1" xmlns="http://www.w3.org/2000/svg" xmlns:xlink="http://www.w3.org/1999/xlink">
    <defs>
        <linearGradient x1="100%" y1="50%" x2="0%" y2="50%" id="linearGradient-1">
            <stop stop-color="#4285F4" offset="0%"></stop>
            <stop stop-color="#DB4437" offset="33.770587%"></stop>
            <stop stop-color="#F4B400" offset="64.8516681%"></stop>
            <stop stop-color="#0F9D58" offset="100%"></stop>
        </linearGradient>
    </defs>
    <g stroke="none" stroke-width="1" fill="none" fill-rule="evenodd">
        <path d="M20.6519337,76.9834254 C23.2302026,76.9834254 25.8268877,76.8360958 28.441989,76.5414365 C31.0570902,76.2467772 33.5985267,75.7495396 36.0662983,75.0497238 C38.53407,74.3499079 40.6887661,73.3370166 42.5303867,72.0110497 C45.6243094,69.801105 48.0736648,67.1860037 49.878453,64.1657459 C51.6832413,61.145488 52.7145488,58.014733 52.9723757,54.7734807 C53.2302026,51.5322284 52.6224678,48.3830571 51.1491713,45.3259669 C49.6758748,42.2688766 47.2081031,39.6353591 43.7458564,37.4254144 C46.3977901,34.7734807 48.2394107,31.9189687 49.2707182,28.8618785 C50.3020258,25.8047882 50.5598527,22.8213628 50.0441989,19.9116022 C49.5285451,17.0018416 48.2762431,14.2578269 46.2872928,11.679558 C44.2983425,9.10128913 41.572744,7.00184162 38.1104972,5.38121547 C34.2799263,3.61325967 30.3941068,2.80294659 26.4530387,2.95027624 C22.5119705,3.09760589 18.5893186,3.79742173 14.6850829,5.04972376 C12.1804788,5.86003683 9.7679558,6.89134438 7.44751381,8.14364641 C5.12707182,9.39594843 3.23020258,11.1270718 1.75690608,13.3370166 C1.09392265,14.2946593 0.762430939,15.3443831 0.762430939,16.4861878 C0.762430939,17.6279926 1.03867403,18.6777164 1.59116022,19.6353591 C2.14364641,20.5930018 2.88029466,21.3848987 3.80110497,22.0110497 C4.72191529,22.6372007 5.77163904,22.9502762 6.95027624,22.9502762 L6.95027624,22.9502762 L6.95027624,67.8121547 C6.28729282,69.8747698 6.30570902,71.771639 7.00552486,73.5027624 C7.7053407,75.2338858 9.63904236,76.2836096 12.8066298,76.6519337 L12.8066298,76.6519337 L13.5801105,76.7624309 C15.7163904,76.9097606 18.0736648,76.9834254 20.6519337,76.9834254 Z M24.4088398,31.5690608 L20.4309392,31.5690608 L20.4309392,17.2044199 C22.4935543,16.6151013 24.7403315,16.3388582 27.1712707,16.3756906 C29.6022099,16.412523 31.7753223,17.0570902 33.6906077,18.3093923 C35.3848987,19.3406998 36.4346225,20.7219153 36.839779,22.4530387 C37.2449355,24.1841621 36.747698,25.8232044 35.3480663,27.3701657 C34.3904236,28.4751381 33.3038674,29.3222836 32.0883978,29.9116022 C30.8729282,30.5009208 29.6206262,30.9244936 28.3314917,31.1823204 C27.0423573,31.4401473 25.7348066,31.5690608 24.4088398,31.5690608 L24.4088398,31.5690608 Z M20.4309392,63.5027624 L20.4309392,45.8232044 C21.9779006,45.7495396 23.4143646,45.6758748 24.7403315,45.6022099 C26.0662983,45.5285451 27.373849,45.5653775 28.6629834,45.7127072 C29.9521179,45.8600368 31.2228361,46.1546961 32.4751381,46.5966851 C33.7274401,47.038674 35.0165746,47.7016575 36.3425414,48.5856354 C37.8895028,49.6906077 38.8103131,50.8876611 39.1049724,52.1767956 C39.3996317,53.46593 39.4364641,54.9944751 39.2154696,56.7624309 C38.3314917,58.3093923 37.1528545,59.5248619 35.679558,60.4088398 C34.2062615,61.2928177 32.6224678,61.9742173 30.9281768,62.4530387 C29.2338858,62.93186 27.46593,63.2265193 25.6243094,63.3370166 C23.7826888,63.4475138 22.0515654,63.5027624 20.4309392,63.5027624 L20.4309392,63.5027624 Z M65.6243094,14.441989 C67.2449355,15.6206262 68.9760589,16.1178637 70.8176796,15.9337017 C72.6593002,15.7495396 74.2983425,14.9760589 75.7348066,13.6132597 C77.1712707,12.2504604 77.8158379,10.3167587 77.6685083,7.8121547 C77.5948435,5.38121547 76.8029466,3.50276243 75.2928177,2.17679558 C73.7826888,0.850828729 72.1436464,0.169429098 70.3756906,0.132596685 C68.6077348,0.0957642726 66.93186,0.721915285 65.3480663,2.01104972 C63.7642726,3.30018416 62.825046,5.30755064 62.5303867,8.03314917 L62.5303867,8.03314917 L62.640884,8.80662983 C63.0092081,11.3848987 64.0036832,13.2633517 65.6243094,14.441989 Z M68.8287293,77.6464088 C70.1546961,77.9410681 71.388582,77.8305709 72.5303867,77.3149171 C73.6721915,76.7992634 74.6850829,75.9705341 75.5690608,74.8287293 C76.4530387,73.6869245 76.9686924,72.3793738 77.1160221,70.9060773 L77.1160221,70.9060773 L77.1160221,59.5248619 C77.1160221,55.9889503 77.0791897,52.4530387 77.0055249,48.9171271 C76.93186,46.4861878 76.8950276,44.0184162 76.8950276,41.5138122 L76.8950276,41.5138122 L76.8950276,28.7513812 C76.8950276,27.3149171 76.305709,25.8600368 75.1270718,24.3867403 C74.2430939,23.1344383 73.1933702,22.3609576 71.9779006,22.0662983 C70.7624309,21.771639 69.5837937,21.8084715 68.441989,22.1767956 C67.3001842,22.5451197 66.2688766,23.2081031 65.3480663,24.1657459 C64.427256,25.1233886 63.7826888,26.2651934 63.4143646,27.5911602 C62.9723757,29.359116 62.8618785,31.145488 63.0828729,32.9502762 C63.3038674,34.7550645 63.4143646,36.5414365 63.4143646,38.3093923 C63.4880295,42.6556169 63.5064457,46.9650092 63.4696133,51.2375691 C63.4327808,55.5101289 63.4511971,59.8195212 63.5248619,64.1657459 C63.5248619,64.9760589 63.5064457,65.878453 63.4696133,66.8729282 C63.4327808,67.8674033 63.4511971,68.8618785 63.5248619,69.8563536 C63.5985267,70.8508287 63.7642726,71.8084715 64.0220994,72.7292818 C64.2799263,73.6500921 64.7034991,74.4788214 65.2928177,75.2154696 C66.3241252,76.5414365 67.5027624,77.3517495 68.8287293,77.6464088 Z M123.414365,77.3149171 C124.740331,77.9779006 126.121547,78.1620626 127.558011,77.8674033 C128.994475,77.572744 130.28361,76.8360958 131.425414,75.6574586 C132.567219,74.4788214 133.248619,72.9686924 133.469613,71.1270718 L133.469613,71.1270718 L133.469613,42.839779 C133.469613,41.5138122 133.432781,40.4825046 133.359116,39.7458564 C133.285451,39.0092081 133.248619,38.5672192 133.248619,38.4198895 C133.174954,34.1473297 132.088398,30.7955801 129.98895,28.3646409 C127.889503,25.9337017 125.274401,24.2762431 122.143646,23.3922652 C119.012891,22.5082873 115.679558,22.3977901 112.143646,23.0607735 C108.607735,23.7237569 105.366483,25.0128913 102.41989,26.9281768 C101.462247,25.4548803 100.265193,24.4788214 98.8287293,24 C97.3922652,23.5211786 96.0294659,23.4475138 94.7403315,23.7790055 C93.4511971,24.1104972 92.3278085,24.8103131 91.3701657,25.878453 C90.412523,26.946593 89.9337017,28.2909761 89.9337017,29.9116022 L89.9337017,29.9116022 L89.9337017,47.3701657 C89.9337017,50.9060773 89.9521179,54.2762431 89.9889503,57.480663 C90.0257827,60.6850829 90.0441989,63.1344383 90.0441989,64.8287293 C90.0441989,65.4917127 90.0257827,66.3941068 89.9889503,67.5359116 C89.9521179,68.6777164 90.0441989,69.8563536 90.2651934,71.0718232 C90.4861878,72.2872928 90.8913444,73.4290976 91.480663,74.4972376 C92.0699816,75.5653775 93.0276243,76.320442 94.3535912,76.7624309 C95.1639042,77.0570902 95.9189687,77.2412523 96.6187845,77.3149171 C97.3186004,77.388582 98.0736648,77.2780847 98.8839779,76.9834254 C100.357274,76.4677716 101.425414,75.6574586 102.088398,74.5524862 C102.751381,73.4475138 103.174954,72.2320442 103.359116,70.9060773 C103.543278,69.5801105 103.598527,68.2173112 103.524862,66.8176796 C103.451197,65.4180479 103.414365,64.1289134 103.414365,62.9502762 L103.414365,62.9502762 L103.414365,47.7016575 C103.414365,46.1546961 103.985267,44.5524862 105.127072,42.8950276 C106.268877,41.2375691 107.429098,39.9300184 108.607735,38.9723757 C109.933702,37.9410681 111.554328,37.0939227 113.469613,36.4309392 C115.384899,35.7679558 117.189687,35.6574586 118.883978,36.0994475 C119.104972,36.320442 119.252302,36.4861878 119.325967,36.5966851 C119.399632,36.7071823 119.473297,36.8360958 119.546961,36.9834254 C119.915285,40.961326 120.081031,44.9208103 120.044199,48.8618785 C120.007366,52.8029466 119.98895,56.7624309 119.98895,60.7403315 C119.98895,62.6556169 119.915285,64.7366483 119.767956,66.9834254 C119.620626,69.2302026 119.878453,71.3848987 120.541436,73.4475138 C121.130755,75.3627993 122.088398,76.6519337 123.414365,77.3149171 Z M166.066298,103.723757 C167.686924,103.723757 169.344383,103.650092 171.038674,103.502762 C174.353591,103.134438 177.263352,102.287293 179.767956,100.961326 C182.27256,99.6353591 184.372007,97.9226519 186.066298,95.8232044 C187.760589,93.7237569 189.031308,91.3112339 189.878453,88.5856354 C190.725599,85.8600368 191.149171,82.9134438 191.149171,79.7458564 C191.149171,71.8637201 191.167587,64 191.20442,56.1546961 C191.241252,48.3093923 191.222836,40.4456722 191.149171,32.5635359 C191.149171,32.0478821 190.965009,31.5138122 190.596685,30.961326 C190.228361,30.4088398 189.896869,29.9116022 189.60221,29.4696133 C188.276243,27.7016575 186.674033,26.8176796 184.79558,26.8176796 C182.917127,26.8176796 181.278085,27.4438306 179.878453,28.6961326 C178.626151,27.8858195 177.337017,27.2228361 176.01105,26.7071823 C174.685083,26.1915285 173.322284,25.6758748 171.922652,25.160221 C169.491713,24.3499079 166.968692,24.1289134 164.353591,24.4972376 C161.73849,24.8655617 159.233886,25.6574586 156.839779,26.8729282 C154.445672,28.0883978 152.290976,29.6353591 150.375691,31.5138122 C148.460405,33.3922652 146.950276,35.4364641 145.845304,37.6464088 C144.003683,41.4769797 142.953959,45.6574586 142.696133,50.1878453 C142.438306,54.718232 143.027624,58.9723757 144.464088,62.9502762 C145.900552,66.9281768 148.184162,70.3535912 151.314917,73.2265193 C154.445672,76.0994475 158.441989,77.8305709 163.303867,78.4198895 C165.808471,78.7145488 168.239411,78.6593002 170.596685,78.2541436 C172.953959,77.8489871 175.311234,77.2412523 177.668508,76.4309392 C177.668508,78.4935543 177.61326,80.3535912 177.502762,82.0110497 C177.392265,83.6685083 177.042357,85.06814 176.453039,86.2099448 C175.86372,87.3517495 174.887661,88.2725599 173.524862,88.9723757 C172.162063,89.6721915 170.228361,90.0957643 167.723757,90.2430939 C166.471455,90.3904236 165.145488,90.335175 163.745856,90.0773481 C162.346225,89.8195212 161.093923,89.4327808 159.98895,88.9171271 C158.810313,88.3278085 157.889503,87.8858195 157.226519,87.5911602 C156.563536,87.2965009 155.826888,86.854512 155.016575,86.2651934 C153.174954,85.3812155 151.499079,85.160221 149.98895,85.6022099 C148.478821,86.0441989 147.3186,86.854512 146.508287,88.0331492 C145.697974,89.2117864 145.32965,90.6298343 145.403315,92.2872928 C145.47698,93.9447514 146.139963,95.5469613 147.392265,97.0939227 L147.392265,97.0939227 L147.834254,97.5359116 C149.970534,98.7882136 152.12523,99.9300184 154.298343,100.961326 C156.471455,101.992634 158.736648,102.729282 161.093923,103.171271 C162.788214,103.539595 164.445672,103.723757 166.066298,103.723757 Z M169.381215,64.8839779 C166.655617,65.4364641 163.672192,64.9392265 160.430939,63.3922652 C160.209945,63.0976059 159.878453,62.7661142 159.436464,62.3977901 C158.994475,62.0294659 158.662983,61.6611418 158.441989,61.2928177 C157.631676,59.1565378 157.023941,57.1860037 156.618785,55.3812155 C156.213628,53.5764273 156.084715,51.8084715 156.232044,50.0773481 C156.379374,48.3462247 156.858195,46.6519337 157.668508,44.9944751 C158.478821,43.3370166 159.657459,41.6243094 161.20442,39.8563536 C161.720074,39.6353591 162.217311,39.4143646 162.696133,39.1933702 C163.174954,38.9723757 163.672192,38.7145488 164.187845,38.4198895 C166.987109,38.0515654 169.399632,38.2909761 171.425414,39.1381215 C173.451197,39.985267 175.532228,41.4769797 177.668508,43.6132597 L177.668508,43.6132597 L177.668508,61.1823204 C174.869245,63.0976059 172.106814,64.3314917 169.381215,64.8839779 Z M212.143646,77.8674033 C215.900552,79.7826888 219.639042,80.3720074 223.359116,79.6353591 C227.07919,78.8987109 230.504604,77.3701657 233.635359,75.0497238 C236.766114,72.7292818 239.45488,69.8563536 241.701657,66.4309392 C243.948435,63.0055249 245.440147,59.5616943 246.176796,56.0994475 C246.692449,53.6685083 246.93186,51.3296501 246.895028,49.0828729 C246.858195,46.8360958 246.655617,44.4604052 246.287293,41.9558011 C245.624309,38.1252302 244.26151,34.8287293 242.198895,32.0662983 C240.13628,29.3038674 237.631676,27.2228361 234.685083,25.8232044 C231.73849,24.4235727 228.552486,23.7421731 225.127072,23.7790055 C221.701657,23.8158379 218.294659,24.718232 214.906077,26.4861878 C212.990792,27.4438306 211.20442,28.6961326 209.546961,30.2430939 C207.889503,31.7900552 206.39779,33.5027624 205.071823,35.3812155 C203.745856,37.2596685 202.622468,39.2302026 201.701657,41.2928177 C200.780847,43.3554328 200.062615,45.4548803 199.546961,47.5911602 L199.546961,47.5911602 L199.436464,48.2541436 C199.06814,50.2430939 198.810313,52.2872928 198.662983,54.3867403 C198.515654,56.4861878 198.699816,58.5672192 199.21547,60.6298343 C199.657459,62.5451197 200.228361,64.3867403 200.928177,66.1546961 C201.627993,67.9226519 202.604052,69.6169429 203.856354,71.2375691 C204.961326,72.7108656 206.195212,73.9815838 207.558011,75.0497238 C208.92081,76.1178637 210.449355,77.0570902 212.143646,77.8674033 Z M220.616575,66.1001842 L220.320442,66.0994475 C218.847145,66.0626151 217.539595,65.6390424 216.39779,64.8287293 C215.255985,64.0184162 214.335175,62.9134438 213.635359,61.5138122 C212.935543,60.1141805 212.475138,58.5672192 212.254144,56.8729282 C212.106814,55.694291 212.106814,54.53407 212.254144,53.3922652 C212.401473,52.2504604 212.585635,51.0902394 212.80663,49.9116022 C213.322284,48.2173112 214.003683,46.5966851 214.850829,45.0497238 C215.697974,43.5027624 216.692449,42.1583794 217.834254,41.0165746 C218.976059,39.8747698 220.320442,38.9539595 221.867403,38.2541436 C223.414365,37.5543278 225.108656,37.2044199 226.950276,37.2044199 C229.74954,38.3093923 231.627993,40.1325967 232.585635,42.6740331 C233.543278,45.2154696 233.837937,47.9042357 233.469613,50.7403315 C233.101289,53.5764273 232.143646,56.3020258 230.596685,58.9171271 C229.049724,61.5322284 227.208103,63.46593 225.071823,64.718232 C223.377532,65.6758748 221.793738,66.1362799 220.320442,66.0994475 L220.616575,66.1001842 Z" id="Bingo" fill="url(#linearGradient-1)" fill-rule="nonzero"></path>
    </g>
</svg>
